#!OML:ASF E:\Steps\Project 1\Capture day 1\Session 2\Subject.ASF
:FULLY-SPECIFIED
:DEGREES
915
root 9.26054 22.6296 -20.9353 -157.584 -0.0443767 178.071
lowerback -27.6272 -1.57088 -5.9538
upperback -0.508809 -0.628861 -0.152162
thorax 14.2 -0.875129 2.80677
lowerneck 1.7 -3.51612 -1.55639
upperneck 5.07747 -4.70252 5.15132
head 1.47214 -2.21777 1.84583
rclavicle 3.35449e-015 1.15295e-014
rhumerus -39.4742 -19.4562 -75.8882
rradius 34.9902
rwrist -4.17494
rhand -6.37472 -53.2219
rfingers 7.12502
rthumb 19.4721 -82.2669
lclavicle 3.35449e-015 1.15295e-014
lhumerus -32.228 6.87548 79.8398
lradius 19.7888
lwrist -7.3353
lhand -19.9281 -13.3783
lfingers 7.12502
lthumb 6.40925 16.5048
rfemur -22.0145 8.1894 18.3474
rtibia 10.1318
rfoot -19.2893 -6.66215
rtoes -33.5214
lfemur -22.6347 -11.4416 -20.7033
ltibia 15.0384
lfoot -11.8489 1.64156
ltoes -26.2095
916
root 9.26821 22.6327 -20.9505 -157.427 -0.212489 178.487
lowerback -27.809 -1.49466 -5.60759
upperback -0.574772 -0.654167 -0.0478815
thorax 14.214 -0.869781 2.7186
lowerneck 1.61647 -3.50188 -1.53624
upperneck 5.00098 -4.68611 5.2117
head 1.46287 -2.20967 1.86095
rclavicle 3.50358e-015 2.5842e-015
rhumerus -39.4807 -19.0537 -76.1645
rradius 35.3261
rwrist -4.35878
rhand -6.56986 -53.0603
rfingers 7.12502
rthumb 19.2845 -82.1241
lclavicle 3.50358e-015 2.5842e-015
lhumerus -32.0678 6.5422 80.0115
lradius 19.9366
lwrist -6.95878
lhand -20.1242 -13.2181
lfingers 7.12502
lthumb 6.21987 16.6706
rfemur -22.0243 8.38162 18.8488
rtibia 9.97685
rfoot -19.2755 -6.66759
rtoes -32.249
lfemur -22.7583 -11.3334 -20.1114
ltibia 14.9925
lfoot -11.8424 1.61931
ltoes -26.7212
917
root 9.27171 22.6344 -20.9663 -157.407 -0.36317 178.358
lowerback -27.8554 -1.56696 -5.76726
upperback -0.596882 -0.69703 -0.0786774
thorax 14.2131 -0.900475 2.75443
lowerneck 1.54877 -3.35943 -1.64878
upperneck 4.95126 -4.50112 5.39004
head 1.46043 -2.11667 1.94011
rclavicle 1.51573e-015 -1.51076e-014
rhumerus -39.5043 -18.6243 -76.4532
rradius 35.7298
rwrist -4.72167
rhand -6.98802 -52.7652
rfingers 7.12502
rthumb 18.8823 -81.8687
lclavicle 1.51573e-015 -1.51076e-014
lhumerus -31.9218 6.20505 80.1893
lradius 20.0205
lwrist -6.61658
lhand -20.3721 -13.6704
lfingers 7.12502
lthumb 5.98057 16.2252
rfemur -21.7855 8.07217 18.7886
rtibia 9.67658
rfoot -19.1695 -6.5436
rtoes -32.9969
lfemur -22.6308 -11.4867 -20.2352
ltibia 14.8417
lfoot -11.8596 1.48259
ltoes -26.4595
918
root 9.27162 22.634 -20.9823 -157.485 -0.37341 178.313
lowerback -27.6384 -1.48841 -5.7378
upperback -1.11992 -0.630804 -0.242462
thorax 14.263 -0.879158 2.73297
lowerneck 1.72478 -3.3203 -1.75422
upperneck 5.05881 -4.44624 5.5119
head 1.46892 -2.08516 2.00175
rclavicle -5.2181e-016 -3.37934e-015
rhumerus -39.8007 -18.45 -76.5908
rradius 36.0586
rwrist -4.81505
rhand -6.9349 -52.9894
rfingers 7.12502
rthumb 18.9334 -82.0879
lclavicle -5.2181e-016 -3.37934e-015
lhumerus -32.0769 5.68943 80.3338
lradius 20.1796
lwrist -6.15186
lhand -20.5857 -14.1339
lfingers 7.12502
lthumb 5.7744 15.7674
rfemur -21.4647 7.70961 18.8232
rtibia 9.37574
rfoot -19.2485 -6.13843
rtoes -31.8975
lfemur -22.3325 -11.6461 -20.3067
ltibia 14.5865
lfoot -11.8433 1.57934
ltoes -26.2456
919
root 9.28098 22.6325 -21.006 -157.215 -0.368623 178.318
lowerback -28.2061 -1.53078 -5.86542
upperback -0.745934 -0.622699 -0.167465
thorax 14.1952 -0.882088 2.73088
lowerneck 1.71487 -3.32505 -1.71943
upperneck 4.83156 -4.45238 5.44821
head 1.3953 -2.09689 1.97485
rclavicle -8.69683e-016 -2.78299e-014
rhumerus -39.6248 -18.3709 -76.8078
rradius 36.2798
rwrist -4.45726
rhand -6.22801 -54.1428
rfingers 7.12502
rthumb 19.6132 -83.1734
lclavicle -8.69683e-016 -2.78299e-014
lhumerus -31.9579 5.41746 80.458
lradius 20.592
lwrist -5.92119
lhand -20.3963 -13.6802
lfingers 7.12502
lthumb 5.95719 16.2161
rfemur -21.5442 7.68454 18.8306
rtibia 9.1146
rfoot -19.0448 -6.18291
rtoes -33.2076
lfemur -22.469 -11.653 -20.2133
ltibia 14.4186
lfoot -11.8084 1.6328
ltoes -25.7123
920
root 9.28518 22.6299 -21.0223 -156.913 -0.534964 178.504
lowerback -28.6312 -1.51579 -5.70662
upperback -0.796461 -0.65258 -0.133427
thorax 14.3378 -0.896472 2.66161
lowerneck 1.67332 -3.17169 -1.58263
upperneck 4.58746 -4.66569 5.35232
head 1.32492 -2.38168 1.9133
rclavicle 3.77691e-015 -3.77691e-015
rhumerus -39.4235 -18.3121 -76.9636
rradius 36.0441
rwrist -4.75193
rhand -6.9534 -53.5027
rfingers 7.12502
rthumb 18.9156 -82.603
lclavicle 3.77691e-015 -3.77691e-015
lhumerus -31.8581 5.1467 80.5444
lradius 21.0135
lwrist -6.18715
lhand -19.9806 -13.1143
lfingers 7.12502
lthumb 6.35859 16.7702
rfemur -21.6362 7.576 19.1012
rtibia 8.83997
rfoot -19.0366 -6.10233
rtoes -32.9983
lfemur -22.7431 -11.6089 -19.9082
ltibia 14.392
lfoot -11.8059 1.49911
ltoes -25.1962
921
root 9.28054 22.6262 -21.031 -156.892 -0.806172 178.891
lowerback -28.6635 -1.433 -5.20951
upperback -0.805221 -0.714015 -0.0522548
thorax 14.3501 -0.892244 2.45587
lowerneck 1.62595 -3.22708 -1.59687
upperneck 4.4326 -4.72428 5.36829
head 1.28707 -2.4087 1.92035
rclavicle -8.59744e-015 -3.77691e-015
rhumerus -39.1272 -18.4012 -76.979
rradius 35.8639
rwrist -4.30241
rhand -6.31094 -53.682
rfingers 7.12502
rthumb 19.5334 -82.7207
lclavicle -8.59744e-015 -3.77691e-015
lhumerus -31.6411 4.92262 80.664
lradius 21.1643
lwrist -6.37939
lhand -19.9938 -13.2098
lfingers 7.12502
lthumb 6.34575 16.6752
rfemur -21.4281 7.1904 19.7075
rtibia 8.58477
rfoot -18.9119 -5.72461
rtoes -32.5376
lfemur -22.7063 -11.6117 -19.4551
ltibia 14.3447
lfoot -11.8297 1.37064
ltoes -25.0589
922
root 9.28176 22.6303 -21.0452 -156.74 -0.708071 178.663
lowerback -28.9021 -1.46214 -5.47921
upperback -0.832564 -0.65473 -0.124758
thorax 14.4218 -0.888958 2.54128
lowerneck 1.50671 -3.14912 -1.6961
upperneck 4.18374 -4.59776 5.46654
head 1.22947 -2.34198 1.97042
rclavicle 1.20265e-014 -7.7526e-015
rhumerus -38.9755 -18.501 -77.0071
rradius 35.8189
rwrist -3.92188
rhand -5.96575 -53.5622
rfingers 7.12502
rthumb 19.8653 -82.5669
lclavicle 1.20265e-014 -7.7526e-015
lhumerus -31.4826 4.62738 80.8396
lradius 21.3194
lwrist -6.03995
lhand -20.1943 -13.3853
lfingers 7.12502
lthumb 6.15228 16.5053
rfemur -21.5206 6.99133 19.4301
rtibia 8.50474
rfoot -19.0381 -5.51268
rtoes -32.1341
lfemur -22.743 -11.6616 -19.7122
ltibia 14.232
lfoot -11.8631 1.38507
ltoes -24.9371
923
root 9.28712 22.6302 -21.0558 -156.746 -0.864759 178.959
lowerback -28.927 -1.41399 -5.25421
upperback -0.836949 -0.674637 -0.0410606
thorax 14.432 -0.884696 2.50232
lowerneck 1.41684 -3.26158 -1.53037
upperneck 3.85915 -4.70834 5.31937
head 1.13738 -2.39185 1.89241
rclavicle 2.03754e-015 -1.2921e-014
rhumerus -39.0349 -18.4479 -77.1408
rradius 36.2339
rwrist -3.91982
rhand -5.99919 -54.0168
rfingers 7.12502
rthumb 19.8331 -83.0249
lclavicle 2.03754e-015 -1.2921e-014
lhumerus -31.3809 4.32759 81.0282
lradius 21.6906
lwrist -5.65408
lhand -19.9853 -12.9293
lfingers 7.12502
lthumb 6.35397 16.9554
rfemur -21.4193 7.1117 19.812
rtibia 8.41146
rfoot -19.0784 -5.63657
rtoes -32.0902
lfemur -22.7092 -11.6164 -19.3003
ltibia 14.1746
lfoot -11.8441 1.3916
ltoes -25.2547
924
root 9.29107 22.632 -21.0642 -156.614 -0.908916 179.029
lowerback -29.0242 -1.36946 -5.23557
upperback -0.875483 -0.626029 -0.0455426
thorax 14.4278 -0.864498 2.50407
lowerneck 1.31872 -3.37454 -1.40071
upperneck 3.47477 -4.8155 5.17126
head 1.02877 -2.44038 1.82134
rclavicle -1.98785e-016 1.07344e-014
rhumerus -39.2382 -18.2392 -77.3475
rradius 36.7622
rwrist -4.24436
rhand -6.42828 -53.6209
rfingers 7.12502
rthumb 19.4206 -82.6711
lclavicle -1.98785e-016 1.07344e-014
lhumerus -31.2362 4.03142 81.1489
lradius 21.9877
lwrist -5.53579
lhand -19.6954 -12.6224
lfingers 7.12502
lthumb 6.63391 17.2537
rfemur -21.4771 7.23846 19.8693
rtibia 8.29438
rfoot -19.0094 -5.77144
rtoes -32.341
lfemur -22.806 -11.5746 -19.1595
ltibia 14.1018
lfoot -11.787 1.42209
ltoes -25.3919
925
root 9.29182 22.6309 -21.0754 -156.496 -0.981146 179.09
lowerback -29.1702 -1.35842 -5.19847
upperback -0.861949 -0.618454 -0.0360741
thorax 14.5106 -0.861927 2.49475
lowerneck 1.37448 -3.84691 -0.848313
upperneck 3.70747 -5.45315 4.79429
head 1.08543 -2.75641 1.5978
rclavicle 3.32964e-015 1.19271e-015
rhumerus -39.0952 -17.8374 -77.6269
rradius 36.9166
rwrist -4.66151
rhand -6.73914 -52.9377
rfingers 7.12502
rthumb 19.1217 -82.0177
lclavicle 3.32964e-015 1.19271e-015
lhumerus -31.0026 3.84367 81.2529
lradius 22.1674
lwrist -5.47307
lhand -19.7755 -12.9217
lfingers 7.12502
lthumb 6.55655 16.9568
rfemur -21.4042 7.03973 19.9796
rtibia 8.00633
rfoot -18.8617 -5.62872
rtoes -33.1788
lfemur -22.7964 -11.5369 -19.0766
ltibia 13.9156
lfoot -11.6842 1.3851
ltoes -25.2186
926
root 9.29366 22.6322 -21.0889 -156.415 -0.830314 178.847
lowerback -29.339 -1.39964 -5.51405
upperback -0.826411 -0.548741 -0.10793
thorax 14.6216 -0.854729 2.6122
lowerneck 1.27417 -4.0072 -0.686412
upperneck 3.64944 -5.65748 4.70312
head 1.08221 -2.85488 1.53738
rclavicle 3.18055e-015 8.34896e-015
rhumerus -38.7676 -17.3641 -77.9259
rradius 36.875
rwrist -4.99871
rhand -6.67845 -53.0209
rfingers 7.12502
rthumb 19.1801 -82.0951
lclavicle 3.18055e-015 8.34896e-015
lhumerus -30.7989 3.65968 81.3742
lradius 22.3747
lwrist -5.32007
lhand -20.0739 -13.3508
lfingers 7.12502
lthumb 6.26851 16.5364
rfemur -21.3382 6.86561 19.6862
rtibia 7.7732
rfoot -18.8981 -5.37744
rtoes -32.1685
lfemur -22.6883 -11.5324 -19.3791
ltibia 13.67
lfoot -11.6113 1.46632
ltoes -25.6875
927
root 9.29973 22.6331 -21.0955 -156.391 -0.730235 178.682
lowerback -29.0606 -1.33829 -5.70364
upperback -1.04907 -0.440818 -0.240493
thorax 14.2207 -0.813243 2.61453
lowerneck 1.43103 -3.96959 -0.863534
upperneck 3.57074 -5.60886 4.82831
head 1.03944 -2.83535 1.6122
rclavicle 2.03754e-015 -2.38542e-014
rhumerus -39.0709 -17.1185 -78.09
rradius 37.0667
rwrist -5.25486
rhand -6.36218 -53.6895
rfingers 7.12502
rthumb 19.4842 -82.7333
lclavicle 2.03754e-015 -2.38542e-014
lhumerus -31.0323 3.00779 81.4844
lradius 22.6788
lwrist -4.87478
lhand -20.1552 -13.282
lfingers 7.12502
lthumb 6.19003 16.6076
rfemur -21.3054 6.95903 19.4567
rtibia 7.67204
rfoot -18.8608 -5.49796
rtoes -32.69
lfemur -22.6283 -11.5171 -19.5443
ltibia 13.539
lfoot -11.5996 1.5069
ltoes -26.3216
928
root 9.30374 22.6328 -21.1017 -156.335 -0.633064 178.485
lowerback -28.8995 -1.34146 -5.97922
upperback -1.22192 -0.38823 -0.299879
thorax 13.938 -0.805407 2.71989
lowerneck -3.1788 -3.21221 2.72163
upperneck 9.30052 -4.65509 -0.915606
head 3.47239 -2.34783 -0.961806
rclavicle -1.88845e-015 1.74931e-014
rhumerus -39.2184 -16.9255 -78.146
rradius 37.1469
rwrist -5.457
rhand -6.10908 -54.3185
rfingers 7.12502
rthumb 19.7275 -83.3375
lclavicle -1.88845e-015 1.74931e-014
lhumerus -31.2732 2.52427 81.6388
lradius 23.0446
lwrist -4.43984
lhand -20.0856 -13.164
lfingers 7.12502
lthumb 6.25716 16.7236
rfemur -21.2885 7.03944 19.1753
rtibia 7.51065
rfoot -18.7499 -5.53337
rtoes -32.3304
lfemur -22.5928 -11.5268 -19.7564
ltibia 13.391
lfoot -11.5377 1.5136
ltoes -26.4347
